Coordinates
version=1
nRows=17
nColumns=36
inDegrees=yes

Units are S.I. units (second, meters, Newtons, ...)
If the header above contains a line with 'inDegrees', this indicates whether rotational values are in degrees (yes) or radians (no).

endheader
time	pelvis_tilt	pelvis_list	pelvis_rotation	pelvis_tx	pelvis_ty	pelvis_tz	hip_flexion_r	hip_adduction_r	hip_rotation_r	knee_angle_r	knee_angle_r_beta	ankle_angle_r	subtalar_angle_r	mtp_angle_r	hip_flexion_l	hip_adduction_l	hip_rotation_l	knee_angle_l	knee_angle_l_beta	ankle_angle_l	subtalar_angle_l	mtp_angle_l	lumbar_extension	lumbar_bending	lumbar_rotation	arm_flex_r	arm_add_r	arm_rot_r	elbow_flex_r	pro_sup_r	arm_flex_l	arm_add_l	arm_rot_l	elbow_flex_l	pro_sup_l
      0.00000000	      4.66260525	     -3.57059348	     11.51131468	      0.72709059	      1.00880959	     -0.11097572	     25.95129421	      2.94310755	      3.33730614	     13.05098020	      0.22778258	     -5.63509587	     -7.28521574	     -6.37985891	      7.18860470	      5.84019354	      2.14924204	     23.42639722	      0.40886776	      1.68101142	    -16.85719769	     -6.37985891	    -18.26376290	      0.36440804	      1.83330274	     38.57681101	     12.45574149	     62.23685018	    121.56418517	    109.85901089	     49.48130703	     13.30167028	     68.18183107	    122.29563301	    104.39879493
      0.01666670	      4.03680512	     -2.44538765	     10.19084535	      0.72612600	      1.00116031	     -0.11251329	     27.32498614	      1.01621886	      5.50454226	     12.03628096	      0.21007273	     -5.37837237	     -4.62566811	     -6.40349427	      7.89277642	      7.93135423	      4.69713461	     22.87098041	      0.39917391	      3.54361758	    -16.92759649	     -6.40349427	    -16.89015619	     -0.73130473	      3.13759179	     40.15302571	     12.52135522	     63.20539199	    122.05504686	    109.27296173	     51.87377294	     13.05509423	     69.10923637	    125.31960716	    103.74894978
      0.03333330	      3.61248442	     -2.20795443	      8.55978875	      0.72731751	      1.00123730	     -0.11073938	     28.13526247	      1.23233146	      6.26573128	     11.63840202	      0.20312843	     -3.87643299	     -2.87875269	     -6.60352299	      9.52349465	      8.00017998	      3.62267892	     24.45236734	      0.42677432	      3.62896538	    -18.21956750	     -6.60352299	    -16.95219262	     -1.21864424	      5.07333553	     40.43549959	     11.83977276	     64.89268662	    121.73802717	    107.21089848	     52.10143728	     12.83176071	     69.95513052	    127.24491407	     97.86956427
      0.05000000	      3.71808846	     -2.11396488	      7.15263539	      0.72812780	      0.99937431	     -0.10991372	     28.99913728	      1.70392714	      6.87144183	     12.82197296	      0.22378564	     -3.10484575	     -2.66880039	     -6.61265282	      9.86470742	      8.00330798	      3.51993982	     25.00384946	      0.43639950	      4.18588442	    -18.37088473	     -6.61265282	    -17.69436444	     -1.45674064	      6.20375872	     40.78733379	     11.47338227	     66.03105474	    120.95893220	    107.09459409	     52.11490886	     12.75103534	     70.46125156	    127.66711249	     97.59437588
      0.06666670	      3.71898252	     -2.45266035	      6.38097095	      0.72409855	      0.99579470	     -0.11289766	     30.32303281	      2.26468684	      6.98433327	     14.27556285	      0.24915557	     -2.92890847	     -2.12638600	     -6.89613799	     10.86879508	      7.64181003	      2.71132621	     26.54793469	      0.46334887	      4.79820282	    -18.02626869	     -6.89613799	    -18.66793057	     -0.90790139	      6.45551838	     41.47420506	     11.59175662	     68.22190439	    119.96851772	    101.93409834	     52.28361121	     12.62201037	     71.94308367	    127.85277342	     89.13001427
      0.08333330	      3.65526134	     -2.62165458	      6.15252514	      0.71967884	      0.99417142	     -0.11026266	     31.78793823	      2.64249149	      7.17268697	     16.05368631	      0.28018968	     -3.14239756	     -2.47540006	     -7.02859298	     12.27010406	      7.26786577	      2.19472305	     28.31732156	      0.49423050	      6.37368000	    -17.16225234	     -7.02859298	    -19.93293341	     -0.75680776	      6.22403315	     41.79653838	     11.86585945	     69.05549358	    119.24133609	     98.77070886	     53.52846534	     12.22030503	     72.94035501	    127.66938735	     85.11249992
      0.10000000	      3.60654169	     -2.77439570	      6.36997744	      0.71478947	      0.98724121	     -0.10764316	     33.37861511	      2.75040395	      6.81859386	     17.41967374	      0.30403066	     -3.39030546	     -3.39524589	     -7.13021395	     13.80077136	      6.77918372	      1.28930233	     30.48502080	      0.53206399	      7.35838057	    -16.55584904	     -7.13021395	    -21.30926437	     -0.62669562	      5.92203570	     42.49476865	     12.22943922	     68.91791641	    118.60858800	     97.32055333	     55.77300416	     11.95964000	     73.70566231	    127.59402889	     79.27521723
      0.11666670	      3.87220891	     -2.96902582	      6.69048015	      0.71548057	      0.98654496	     -0.10829395	     34.36330281	      2.98467259	      6.46655033	     18.67091877	      0.32586901	     -3.73599456	     -3.83484490	     -7.14204511	     14.79514410	      6.24240259	      1.03178403	     32.50550269	      0.56732805	      8.30692258	    -16.24810980	     -7.14204511	    -22.85576203	     -0.54283310	      5.49443776	     43.57631178	     12.57101578	     69.15544344	    118.49053930	     96.95340383	     57.88197736	     11.52575145	     74.02016574	    127.32422957	     78.59520203
      0.13333330	      3.94016661	     -2.98147621	      7.33507039	      0.71028665	      0.97970558	     -0.10593862	     35.47573085	      2.93474284	      5.87700521	     18.92106343	      0.33023485	     -3.79364432	     -4.13477674	     -7.14753980	     16.16199889	      6.05716253	      0.88688362	     34.62992719	      0.60440625	      9.04790029	    -16.21076684	     -7.14753980	    -24.36890409	     -0.69157752	      5.29986966	     44.70881456	     12.66547376	     68.93735738	    118.37244143	     96.63170879	     59.76555616	     11.23452965	     73.89514886	    127.11135878	     78.17990107
      0.15000000	      3.86335240	     -3.14928531	      7.71595554	      0.70539764	      0.96994046	     -0.10869392	     36.89046877	      2.94071721	      5.26693966	     19.55531843	      0.34130469	     -3.75095138	     -4.08540537	     -7.26468333	     18.42827936	      5.69322061	      0.43006025	     37.78218070	      0.65942345	     10.95221656	    -15.65728353	     -7.26468333	    -25.67162773	     -0.55872254	      5.21471395	     45.83939422	     12.73658595	     69.26921019	    119.09710403	     92.58628268	     61.03216130	     11.47040508	     74.54946537	    127.40635265	     70.10176919
      0.16666670	      3.60726936	     -3.52487232	      8.02403799	      0.70118146	      0.96629588	     -0.10687207	     38.36405306	      3.09010368	      4.78645309	     19.84650473	      0.34638685	     -3.30535458	     -4.38956920	     -7.27066312	     21.12436179	      4.97592379	     -0.64661694	     41.39922695	      0.72255282	     11.79325894	    -15.51783924	     -7.27066312	    -27.22326257	     -0.38735897	      5.06435646	     47.64570262	     13.10620781	     69.23544293	    119.87489649	     92.59132563	     62.37511562	     11.59582959	     74.69345196	    127.35879117	     69.91432675
      0.18333330	      3.38243563	     -3.90327245	      8.24050925	      0.69660881	      0.95975543	     -0.10456000	     39.77163778	      3.25367812	      4.19743535	     20.54395054	      0.35855958	     -3.36996878	     -4.98847192	     -7.29565315	     23.41198792	      4.19976459	     -1.36736324	     44.36038117	      0.77423471	     13.12853363	    -14.66781978	     -7.29565315	    -28.70619614	     -0.20894764	      5.15320754	     50.02751257	     13.36166638	     69.02301828	    120.11742861	     90.93898192	     63.70932586	     11.70713423	     75.01180282	    127.57329922	     68.90391021
      0.20000000	      3.04476723	     -4.17470845	      8.14269312	      0.69726496	      0.95199383	     -0.10486341	     41.14823165	      3.49263179	      3.67956043	     21.00191368	      0.36655254	     -3.27590143	     -5.56624204	     -7.29978033	     24.82133737	      3.48527796	     -2.70053678	     46.37477704	      0.80939255	     14.52329029	    -13.62508360	     -7.29978033	    -29.80835158	     -0.16062605	      5.47559344	     51.57849074	     13.52746004	     69.23686053	    119.92583147	     90.52224576	     64.38943735	     11.83940584	     75.56625228	    127.87535279	     68.56611856
      0.21666670	      2.87554540	     -4.36429129	      8.11754267	      0.69770757	      0.95393679	     -0.10538192	     41.71461867	      3.72302193	      3.41348860	     21.11793396	      0.36857748	     -3.53986918	     -5.86813441	     -7.30118063	     25.46866206	      3.03065248	     -3.44737311	     47.19539929	      0.82371511	     14.77273889	    -13.37222746	     -7.30118063	    -30.92983931	     -0.06976906	      5.78770524	     52.12723210	     13.56179785	     69.44183926	    119.69852765	     90.59385627	     64.26054547	     12.00303879	     76.21493888	    127.88024525	     68.54842968
      0.23333330	      2.68825549	     -4.45554567	      7.93471959	      0.69345674	      0.95270257	     -0.10295359	     42.30879080	      3.95116850	      3.02180678	     20.57220091	      0.35905264	     -3.70915028	     -5.82872052	     -7.31284467	     25.87595039	      2.49390991	     -4.44194422	     47.61109952	      0.83097045	     15.10962493	    -12.12341980	     -7.31284467	    -31.99281546	     -0.34406537	      6.19771986	     52.94693610	     13.55959231	     69.73950859	    119.58363823	     89.97082881	     64.73337419	     12.15888557	     77.18723430	    127.98459686	     68.18906938
      0.25000000	      2.23356477	     -4.45322311	      7.63469942	      0.69452141	      0.94365362	     -0.10299739	     43.26360188	      4.12688490	      2.57005551	     19.80169244	      0.34560473	     -4.01152240	     -5.26689039	     -7.31635423	     26.72337207	      2.20916029	     -5.16356469	     48.13585676	      0.84012919	     15.89977368	    -11.70508921	     -7.31635423	    -32.81438557	     -0.70752371	      6.51482423	     53.24211521	     13.43839928	     69.96797171	    119.16563479	     89.58772793	     65.17462892	     12.06028670	     77.69784170	    127.83293780	     68.25238245
      0.26666670	      2.19555021	     -4.16257600	      7.41525664	      0.69509225	      0.94128893	     -0.10274977	     43.67170899	      4.12398036	      2.42094044	     19.25560538	      0.33607371	     -4.37084989	     -5.18214936	     -7.31780000	     26.91499592	      2.14480184	     -5.97398001	     48.59178509	      0.84808664	     15.92367134	    -11.63187278	     -7.31780000	    -34.12700352	     -1.36689910	      6.57815039	     53.96482775	     13.39829631	     70.27664513	    118.49320076	     89.68187987	     66.38704438	     11.71813759	     78.33343095	    127.39688496	     68.20989510
